<?xml version="1.0" standalone="no"?>
<!DOCTYPE svg PUBLIC "-//W3C//DTD SVG 20010904//EN"
 "http://www.w3.org/TR/2001/REC-SVG-20010904/DTD/svg10.dtd">
<svg version="1.0" xmlns="http://www.w3.org/2000/svg"
 width="189.000000pt" height="189.000000pt" viewBox="0 0 189.000000 189.000000"
 preserveAspectRatio="xMidYMid meet">
<metadata>
Created by potrace 1.11, written by Peter Selinger 2001-2013
</metadata>
<g transform="translate(0.000000,189.000000) scale(0.100000,-0.100000)"
fill="#000000" stroke="none">
<path d="M922 1705 c-37 -70 -35 -68 -75 -45 -40 24 -41 22 -28 -30 5 -19 12
-48 15 -64 l7 -28 -25 28 -24 29 -13 -28 c-14 -31 -12 -30 -58 -17 -19 5 -36
8 -38 6 -2 -2 3 -21 11 -41 9 -21 16 -39 16 -41 0 -2 -146 -4 -324 -4 l-325 0
-21 -27 c-27 -34 -21 -57 32 -137 54 -79 774 -1101 806 -1144 30 -39 64 -50
95 -29 13 8 216 289 452 624 458 650 465 661 414 697 -20 14 -64 16 -342 16
l-319 0 6 23 c3 12 9 33 12 46 6 21 4 23 -17 16 -13 -3 -32 -9 -41 -11 -11 -3
-23 5 -34 21 l-18 27 -18 -24 -19 -23 6 40 c4 22 9 53 12 69 l6 30 -37 -23
c-20 -13 -39 -22 -40 -20 -2 2 -15 26 -29 54 l-24 49 -21 -39z m-232 -270
c-11 -13 -58 -15 -310 -15 -163 0 -300 -3 -303 -6 -3 -4 -1 -16 5 -28 11 -21
833 -1193 849 -1211 6 -6 16 -2 28 10 36 39 851 1207 851 1221 0 12 -47 14
-304 14 -258 0 -305 2 -316 15 -11 13 24 15 303 15 274 0 318 -2 331 -16 9 -8
16 -22 16 -30 0 -9 -196 -294 -436 -635 -466 -662 -454 -648 -501 -596 -19 21
-671 944 -795 1126 -58 85 -68 117 -46 139 9 9 95 12 326 12 278 0 313 -2 302
-15z m-180 -320 c0 -9 -9 -15 -25 -15 -24 0 -25 -3 -25 -59 0 -54 2 -60 22
-63 13 -2 24 -11 26 -20 5 -27 -73 -25 -88 1 -11 21 -14 129 -4 155 8 22 94
23 94 1z m134 -1 c3 -9 6 -51 6 -95 0 -78 0 -79 -25 -79 -20 0 -25 5 -25 25 0
32 -27 34 -32 3 -2 -15 -11 -24 -25 -26 -22 -3 -23 -1 -23 76 0 44 3 87 6 96
9 23 109 23 118 0z m150 0 c3 -9 6 -51 6 -95 0 -78 0 -79 -25 -79 -25 0 -25 1
-25 81 0 71 -2 80 -17 77 -15 -3 -18 -16 -21 -81 -3 -69 -5 -77 -22 -77 -18 0
-20 7 -20 95 l0 95 59 0 c44 0 60 -4 65 -16z m150 0 c3 -9 6 -51 6 -95 0 -78
0 -79 -25 -79 -20 0 -25 5 -25 25 0 18 -5 25 -20 25 -15 0 -20 -7 -20 -25 0
-18 -5 -25 -20 -25 -18 0 -20 7 -20 79 0 44 3 86 6 95 9 23 109 23 118 0z
m144 4 c15 -15 16 -132 2 -159 -9 -15 -22 -19 -65 -19 l-55 0 0 95 0 95 53 0
c29 0 58 -5 65 -12z m72 -83 c0 -88 -1 -95 -20 -95 -19 0 -20 7 -20 95 0 88 1
95 20 95 19 0 20 -7 20 -95z m148 -2 c3 -88 2 -93 -18 -93 -15 0 -20 7 -20 25
0 18 -5 25 -20 25 -15 0 -20 -7 -20 -25 0 -18 -5 -25 -20 -25 -18 0 -20 7 -20
88 0 49 3 92 7 96 4 4 30 6 58 4 l50 -3 3 -92z m150 0 c3 -88 2 -93 -18 -93
-18 0 -20 6 -20 80 0 73 -2 80 -20 80 -18 0 -20 -7 -20 -80 0 -72 -2 -80 -19
-80 -18 0 -20 9 -23 95 l-3 96 60 -3 60 -3 3 -92z m-618 -179 c0 -9 -9 -18
-20 -21 -17 -4 -20 -15 -22 -81 -3 -64 -6 -77 -20 -80 -16 -3 -18 6 -18 77 0
74 -2 81 -20 81 -13 0 -20 7 -20 20 0 18 7 20 60 20 48 0 60 -3 60 -16z m50
-84 c0 -93 -1 -100 -20 -100 -19 0 -20 7 -20 100 0 93 1 100 20 100 19 0 20
-7 20 -100z m146 35 c1 -33 3 -76 5 -95 3 -30 1 -35 -16 -35 -15 0 -21 8 -23
33 -2 23 -8 32 -22 32 -14 0 -20 -9 -22 -32 -2 -22 -9 -34 -20 -36 -16 -3 -18
7 -18 98 l0 101 58 -3 57 -3 1 -60z m122 48 c-2 -10 -13 -19 -26 -21 -32 -5
-30 -42 3 -42 16 0 25 -6 25 -15 0 -9 -9 -15 -25 -15 -20 0 -25 -5 -25 -25 0
-20 5 -25 26 -25 19 0 25 -5 22 -17 -4 -22 -39 -28 -67 -13 -19 9 -21 20 -21
94 0 45 3 86 7 89 3 4 24 7 45 7 32 0 39 -3 36 -17z"/>
<path d="M570 1065 c0 -24 5 -35 15 -35 10 0 15 11 15 35 0 24 -5 35 -15 35
-10 0 -15 -11 -15 -35z"/>
<path d="M867 1093 c-4 -3 -7 -19 -7 -35 0 -21 5 -28 20 -28 16 0 20 7 20 35
0 33 -16 46 -33 28z"/>
<path d="M1010 1040 c0 -53 2 -60 20 -60 18 0 20 7 20 60 0 53 -2 60 -20 60
-18 0 -20 -7 -20 -60z"/>
<path d="M1230 1065 c0 -28 4 -35 20 -35 16 0 20 7 20 35 0 28 -4 35 -20 35
-16 0 -20 -7 -20 -35z"/>
<path d="M960 805 c0 -18 5 -25 20 -25 15 0 20 7 20 25 0 18 -5 25 -20 25 -15
0 -20 -7 -20 -25z"/>
</g>
</svg>
